<?xml version="1.0" encoding="utf-8"?>
<!-- Generator: Adobe Illustrator 16.0.0, SVG Export Plug-In . SVG Version: 6.00 Build 0)  -->
<!DOCTYPE svg PUBLIC "-//W3C//DTD SVG 1.1//EN" "http://www.w3.org/Graphics/SVG/1.1/DTD/svg11.dtd">
<svg version="1.1" id="Warstwa_1" xmlns="http://www.w3.org/2000/svg" xmlns:xlink="http://www.w3.org/1999/xlink" x="0px" y="0px"
	 width="525.932px" height="124.645px" viewBox="0 0 525.932 124.645" enable-background="new 0 0 525.932 124.645"
	 xml:space="preserve">
<path fill-rule="evenodd" clip-rule="evenodd" fill="#ED1C24" d="M94.973,67.807v-2.804h0.332c1.036,0,1.73-0.258,2.086-0.775
	c0.236-0.334,0.355-0.873,0.355-1.618c0-0.791-0.142-1.353-0.422-1.687c-0.409-0.481-1.193-0.723-2.351-0.729v-2.85h1.241
	c1.554,0,2.767,0.5,3.639,1.504c0.814,0.927,1.221,2.136,1.221,3.625c0,1.565-0.341,2.796-1.021,3.693
	c-0.827,1.094-2.151,1.641-3.971,1.641H94.973z M94.973,57.344v2.85l-0.045,0h-2.729v4.81h2.774v2.804h-2.774v5.927h-3.351v-16.39
	H94.973L94.973,57.344z M76.086,74.19v-2.895h0.011c1.494,0,2.625-0.623,3.395-1.869c0.622-1.003,0.932-2.197,0.932-3.58
	c0-2.005-0.381-3.507-1.143-4.502c-0.748-0.977-1.813-1.475-3.194-1.492v-2.941l0.1-0.001c2.115,0,3.845,0.662,5.191,1.984
	c1.583,1.549,2.375,3.799,2.375,6.748c0,2.659-0.696,4.749-2.086,6.269c-1.391,1.52-3.247,2.279-5.569,2.279H76.086z M57.948,89.421
	l0.002,1.78l-4.307,0.005l-5.17,9.996l13.793-2.292l-16.272,18.385l3.539,2.389l-11.502,4.96l2.376-12.021l2.926,2.645l5.665-8.61
	l-9.345,1.408l4.138-16.845l-5.438,0.02l0.118-1.78L57.948,89.421L57.948,89.421z M76.086,56.911v2.941l-0.077-0.001
	c-1.066,0-1.99,0.373-2.774,1.117c-0.99,0.942-1.486,2.333-1.486,4.172c0,1.778,0.311,3.199,0.932,4.262
	c0.737,1.258,1.873,1.889,3.406,1.892v2.895c-2.317-0.002-4.184-0.762-5.603-2.279c-1.346-1.444-2.018-3.283-2.018-5.517v-0.593
	c0-2.705,0.598-4.824,1.796-6.36C71.562,57.776,73.503,56.933,76.086,56.911L76.086,56.911z M0,68.696h3.217
	c0,0.881,0.326,1.558,0.977,2.029c0.576,0.411,1.301,0.615,2.174,0.615c1.021,0,1.812-0.122,2.375-0.365
	c0.753-0.334,1.132-0.881,1.132-1.641c0-0.79-0.415-1.344-1.243-1.663c-0.281-0.108-0.828-0.268-1.642-0.48
	c-0.503-0.137-0.795-0.217-0.876-0.239c-0.082-0.022-0.299-0.065-0.654-0.125c-1.672-0.334-2.885-0.79-3.638-1.367
	c-1.036-0.805-1.554-1.999-1.554-3.58c0-1.52,0.528-2.728,1.586-3.625c1.058-0.896,2.533-1.345,4.426-1.345
	c2.203,0,3.867,0.601,4.992,1.802c0.888,0.957,1.332,2.12,1.332,3.487H9.407c-0.088-0.911-0.465-1.565-1.131-1.96
	C7.743,59.92,7.01,59.761,6.08,59.761c-0.755,0-1.376,0.137-1.864,0.41c-0.592,0.334-0.889,0.821-0.889,1.458
	c0,0.396,0.089,0.738,0.268,1.026c0.177,0.289,0.51,0.509,0.998,0.661l3.816,0.98c1.73,0.426,2.914,0.919,3.55,1.481
	c0.755,0.669,1.131,1.688,1.131,3.054c0,1.627-0.546,2.904-1.642,3.831c-1.199,1.017-2.685,1.526-4.46,1.526
	c-2.159,0-3.831-0.418-5.014-1.253C0.658,72.01,0,70.596,0,68.696L0,68.696z M21.516,73.734V60.239h-4.792v-2.895h12.957v2.895
	h-4.815v13.496H21.516L21.516,73.734z M34.112,73.734v-16.39H45.85v2.895h-8.475v3.488h7.787v2.872h-7.787v4.24h8.83v2.895H34.112
	L34.112,73.734z M51.658,73.734v-16.39h3.283v6.679l6.124-6.679h4.283l-6.501,6.725l6.899,9.665h-4.304l-4.926-7.158l-1.574,1.596
	v5.562H51.658z"/>
<path fill-rule="evenodd" clip-rule="evenodd" d="M96.97,86.738L83.349,76.733H49.828v10.097L96.97,86.738L96.97,86.738z
	 M49.828,54.225v-41l0.647-0.067l0.597-0.188l0.534-0.32l0.481-0.385l0.396-0.482l0.299-0.551l0.193-0.609l0.06-0.645l-0.061-0.658
	l-0.196-0.594l-0.302-0.55l-0.401-0.473l-0.478-0.404l-0.54-0.296l-0.594-0.196l-0.636-0.042V0.013l0.977,0.046l1.001,0.145
	l0.955,0.239l0.913,0.342l0.88,0.416l0.82,0.503l0.774,0.563l0.704,0.656l0.66,0.701l0.562,0.772l0.506,0.819l0.419,0.879
	l0.352,0.91l0.233,0.953l0.155,1l0.066,1.013l-0.032,0.818l-0.106,0.808l-0.157,0.791l-0.227,0.768l-0.277,0.738l-0.346,0.712
	l-0.396,0.673l-0.448,0.636l-1.031,1.189l-1.198,1l-1.344,0.804l-1.476,0.595l0.005,3.016l7.501-0.017l0.009,5.052l0.969,0.36
	l0.954,0.428l0.946,0.491l0.91,0.549l0.881,0.591l0.861,0.659l0.856,0.68l0.803,0.746l0.793,0.758l0.736,0.821l1.374,1.695
	l0.627,0.862l0.583,0.91l0.532,0.91l0.483,0.903l0.63,1.759l0.573,1.862l0.519,1.911l0.487,1.965l0.42,1.966l0.376,1.976l0.3,1.944
	l0.255,1.889l-16.492,0.035H49.828z M49.828,76.733H15.849L3.238,86.921l46.59-0.091V76.733L49.828,76.733z M49.828,0.013v6.754
	l-0.022-0.001v-0.01L49.179,6.81l-0.616,0.198l-0.538,0.298l-0.483,0.408l-0.393,0.473l-0.274,0.555l-0.198,0.6l-0.055,0.648
	l0.059,0.648l0.198,0.609l0.28,0.555l0.393,0.472l0.494,0.382l0.534,0.317l0.608,0.189l0.637,0.063h0.004v41H23.932l0.836-4.791
	l0.361-1.858l0.368-1.692l0.428-1.648l0.502-1.736l1.42-4.341l0.472-1.045l0.504-0.968l0.58-0.912l0.625-0.836l0.669-0.792
	l0.716-0.747l1.545-1.342l0.823-0.614l0.833-0.565l1.711-1.034l1.756-0.895l1.745-0.815l0.037-5.051l7.053-0.011l-0.012-3.009
	l-1.466-0.602l-1.342-0.801l-1.189-0.997l-1.034-1.174l-0.451-0.638l-0.385-0.668l-0.627-1.449l-0.408-1.559l-0.103-0.813
	l-0.032-0.812l0.053-1.033L40.073,8l0.251-0.977l0.324-0.905l0.417-0.888l0.505-0.814l0.58-0.762l0.642-0.702l0.711-0.66
	l0.759-0.571l0.823-0.508l0.857-0.418l0.932-0.344l0.935-0.242l0.985-0.144L49.805,0v0.011v0.001L49.828,0.013z"/>
<path fill-rule="evenodd" clip-rule="evenodd" d="M497.265,74.382V60.867c5.738-0.885,8.62-4.235,8.62-10.059
	c0-6.324-2.874-9.954-8.62-10.897V26.406c9.398,0.22,16.46,2.117,21.13,5.66c5.005,3.797,7.537,9.719,7.537,17.785
	c0,7.998-2.444,14.089-7.297,18.264C513.811,72.268,506.688,74.359,497.265,74.382z M497.265,26.406v13.505
	c-1.008-0.166-2.103-0.25-3.287-0.25c-1.805,0-3.568,0-5.332,0c0,3.573,0,7.147,0,10.721c0,3.574,0,7.148,0,10.723
	c1.724,0,3.488,0,5.252,0c1.215,0,2.337-0.079,3.367-0.238v13.515l-0.16,0c-2.847,0-5.652,0-8.459,0c0,4.284,0,8.577,0,12.853
	c0,4.277,0,8.561,0,12.837c-6.616,0-13.232,0-19.808,0c0-12.281,0-24.563,0-36.844s0-24.563,0-36.844c8.821,0,17.683,0,26.543,0
	C496.02,26.384,496.646,26.392,497.265,26.406L497.265,26.406z M420.225,101.771V87.228l0.06,0c5.093,0,9.169-2.171,12.27-6.477
	c3.113-4.325,4.65-10.229,4.65-17.731c0-7.502-1.538-13.39-4.65-17.677c-3.103-4.273-7.177-6.43-12.27-6.43l-0.06,0V24.579l0.06,0
	c11.588,0,20.609,3.404,27.104,10.197c3.247,3.397,5.692,7.473,7.296,12.212c1.604,4.74,2.446,10.158,2.446,16.241
	c0,6.052-0.842,11.448-2.446,16.172c-1.604,4.725-4.049,8.785-7.296,12.181c-6.495,6.793-15.517,10.19-27.104,10.19L420.225,101.771
	z M420.225,24.579v14.334c-4.944,0.018-9.029,2.167-12.208,6.476c-3.183,4.313-4.771,10.198-4.771,17.631
	c0,7.573,1.576,13.492,4.691,17.786c3.088,4.258,7.184,6.405,12.288,6.422v14.543c-11.518-0.012-20.552-3.393-27.083-10.135
	c-3.281-3.388-5.773-7.434-7.378-12.166c-1.188-3.51-1.938-7.396-2.245-11.655V58.67c0.308-4.234,1.057-8.105,2.245-11.614
	c1.604-4.732,4.096-8.802,7.378-12.227C399.671,28.015,408.707,24.59,420.225,24.579L420.225,24.579z M383.519,100.073h0.16
	l-0.16-0.209V100.073z M176.274,27.234c-0.521,5.063-1.003,10.127-1.483,15.184c-6.015-2.547-11.627-3.822-16.84-3.822
	c-4.05,0-7.217,0.642-9.422,1.916s-3.328,3.01-3.328,5.203c0,3.111,2.285,5.412,6.856,6.901c7.817,2.548,12.437,4.12,13.953,4.778
	c2.573,1.117,4.669,2.275,6.294,3.504c5.111,3.866,7.618,9.201,7.618,15.924c0,8.067-2.696,14.238-8.1,18.527
	c-5.382,4.272-13.271,6.423-23.695,6.423c-3.569,0-7.257-0.245-11.066-0.742c-3.77-0.491-7.538-1.273-11.346-2.331
	c0.56-5.481,1.122-10.97,1.723-16.458c3.568,1.621,7.017,2.826,10.344,3.604c3.329,0.781,6.375,1.174,9.142,1.174
	c4.009,0,7.101-0.704,9.342-2.131c2.209-1.406,3.287-3.395,3.287-5.944c0-2.833-1.975-5.141-6.093-6.685
	c-3.621-1.358-6.577-2.298-8.781-3.08c-6.977-2.476-11.943-5.277-14.875-8.391c-3.202-3.401-4.811-7.789-4.811-13.168
	c0-7.357,2.654-13.03,7.978-17.038c5.301-3.988,12.951-6.005,22.974-6.005C163.204,24.578,169.979,25.466,176.274,27.234
	L176.274,27.234z M383.519,58.67v9.145c-0.107-1.483-0.16-3.013-0.16-4.587C383.358,61.665,383.411,60.146,383.519,58.67
	L383.519,58.67z M383.519,99.863c-4.997-6.561-9.956-13.13-14.915-19.691c-5.011-6.63-10.022-13.277-15.034-19.916
	c4.53-5.643,9.102-11.286,13.632-16.928c4.53-5.643,9.101-11.294,13.671-16.944c-7.417,0-14.794,0-22.171,0
	c-3.849,5.311-7.738,10.629-11.547,15.933c-3.81,5.304-7.658,10.622-11.468,15.925c0-5.303,0-10.621,0-15.925
	c0-5.304,0-10.622,0-15.933c-6.615,0-13.23,0-19.846,0c0,12.282,0,24.563,0,36.844s0,24.563,0,36.844c6.615,0,13.23,0,19.846,0
	c0-5.696,0-11.393,0-17.091c0-5.697,0-11.394,0-17.098c3.89,5.704,7.779,11.401,11.667,17.098
	c3.89,5.698,7.778,11.395,11.668,17.091h24.497V99.863L383.519,99.863z M185.295,26.384c18.884,0,37.769,0,56.653,0
	c0,4.925,0,9.842,0,14.76c-6.175,0-12.31,0-18.444,0c0,9.826,0,19.652,0,29.472s0,19.638,0,29.457c-6.615,0-13.231,0-19.806,0
	c0-9.818,0-19.637,0-29.457s0-19.646,0-29.472c-6.135,0-12.269,0-18.403,0C185.295,36.227,185.295,31.31,185.295,26.384
	L185.295,26.384z M250.408,26.384c17.2,0,34.4,0,51.641,0c0,4.608,0,9.209,0,13.81c-10.625,0-21.25,0-31.835,0
	c0,4.956,0,9.912,0,14.859c9.983,0,19.967,0,29.99,0c0,4.678,0,9.348,0,14.019c-10.023,0-20.007,0-29.99,0
	c0,5.596,0,11.186,0,16.773c10.985,0,21.972,0,32.997,0c0,4.748,0,9.487,0,14.227c-17.602,0-35.202,0-52.803,0
	c0-12.281,0-24.563,0-36.844S250.408,38.666,250.408,26.384z"/>
</svg>
